<?xml version="1.0" encoding="UTF-8" standalone="no"?>
<svg
   xmlns:dc="http://purl.org/dc/elements/1.1/"
   xmlns:cc="http://creativecommons.org/ns#"
   xmlns:rdf="http://www.w3.org/1999/02/22-rdf-syntax-ns#"
   xmlns:svg="http://www.w3.org/2000/svg"
   xmlns="http://www.w3.org/2000/svg"
   xmlns:sodipodi="http://sodipodi.sourceforge.net/DTD/sodipodi-0.dtd"
   xmlns:inkscape="http://www.inkscape.org/namespaces/inkscape"
   version="1.1"
   id="Layer_1"
   x="0px"
   y="0px"
   width="37"
   height="37"
   viewBox="2.5 -5 37 49.95"
   enable-background="new 0 0 50 50"
   xml:space="preserve"
   inkscape:version="0.48.4 r9939"
   sodipodi:docname="badminton.svg"><metadata
     id="metadata149"><rdf:RDF><cc:Work
         rdf:about=""><dc:format>image/svg+xml</dc:format><dc:type
           rdf:resource="http://purl.org/dc/dcmitype/StillImage" /></cc:Work></rdf:RDF></metadata><defs
     id="defs147" /><sodipodi:namedview
     pagecolor="#ffffff"
     bordercolor="#666666"
     borderopacity="1"
     objecttolerance="10"
     gridtolerance="10"
     guidetolerance="10"
     inkscape:pageopacity="0"
     inkscape:pageshadow="2"
     inkscape:window-width="1333"
     inkscape:window-height="718"
     id="namedview145"
     showgrid="false"
     inkscape:zoom="13.216216"
     inkscape:cx="18.5"
     inkscape:cy="18.5"
     inkscape:window-x="33"
     inkscape:window-y="24"
     inkscape:window-maximized="1"
     inkscape:current-layer="Layer_1"
     inkscape:snap-page="true" /><g
     id="g3"
     transform="translate(0,-17.55)"><g
       id="g5"><circle
         cx="683.79797"
         cy="3613.543"
         r="2.7219999"
         id="circle7"
         sodipodi:cx="683.79797"
         sodipodi:cy="3613.543"
         sodipodi:rx="2.7219999"
         sodipodi:ry="2.7219999"
         style="fill:#222"
         d="m 686.51997,3613.543 c 0,1.5033 -1.21868,2.722 -2.722,2.722 -1.50332,0 -2.722,-1.2187 -2.722,-2.722 0,-1.5034 1.21868,-2.722 2.722,-2.722 1.50332,0 2.722,1.2186 2.722,2.722 z" /></g><g
       id="g9"><g
         id="g11"><polygon
           points="667.215,3621.643 667.096,3621.664 666.981,3621.719 "
           id="polygon13"
           style="fill:#222" /><path
           d="m 670.965,3620.113 -0.005,-0.049 c -0.011,-0.092 -0.007,-0.182 -0.004,-0.271 l -3.86,1.87 0.119,-0.021 -0.233,0.076 0.114,-0.055 -2.04,0.356 3.024,0.543 3.369,-1.188 -0.468,-1.217 -0.016,-0.044 z"
           id="path15"
           inkscape:connector-curvature="0"
           style="fill:#222" /><polygon
           points="668.366,3623.15 668.148,3623.111 667.943,3623.18 "
           id="polygon17"
           style="fill:#222" /><path
           d="m 671.625,3621.965 -3.477,1.146 0.218,0.039 -0.423,0.029 0.205,-0.068 -6.765,-1.205 -0.287,-0.051 -0.26,0.135 -2.566,2.278 2.906,-0.638 -0.095,-0.018 0.548,-0.082 -0.453,0.1 6.885,1.227 0.215,0.037 0.21,-0.068 4.651,-1.535 c -0.305,-0.07 -0.593,-0.199 -0.846,-0.397 -0.31,-0.246 -0.532,-0.568 -0.666,-0.929 z"
           id="path19"
           inkscape:connector-curvature="0"
           style="fill:#222" /><polygon
           points="661.082,3623.613 661.177,3623.631 661.63,3623.531 "
           id="polygon21"
           style="fill:#222" /><path
           d="m 671.732,3619.86 c 0,0.029 -0.011,0.056 -0.009,0.089 l 0.449,1.17 0.177,-0.063 -0.617,-1.196 z"
           id="path23"
           inkscape:connector-curvature="0"
           style="fill:#222" /><path
           d="m 672.371,3621.719 c 0.085,0.22 0.207,0.422 0.397,0.572 0.283,0.225 0.635,0.324 0.993,0.283 0,0 0.244,-0.029 0.623,-0.072 l -0.43,-1.305 -1.583,0.522 z"
           id="path25"
           inkscape:connector-curvature="0"
           style="fill:#222" /><polygon
           points="683.339,3617.053 683.33,3617.053 683.332,3617.061 "
           id="polygon27"
           style="fill:#222" /><path
           d="m 671.5,3621.475 c 0.004,0.025 0.013,0.051 0.017,0.076 l 0.007,0.018 -0.024,-0.094 z"
           id="path29"
           inkscape:connector-curvature="0"
           style="fill:#222" /><polygon
           points="681.532,3616.273 681.544,3616.275 681.584,3616.265 "
           id="polygon31"
           style="fill:#222" /><path
           d="m 671.722,3619.978 c -0.002,-0.011 0.002,-0.021 0.002,-0.028 l -0.024,-0.066 0.022,0.094 z"
           id="path33"
           inkscape:connector-curvature="0"
           style="fill:#222" /></g><g
         id="g35"><path
           d="m 689.647,3616.198 -6.232,1.229 -2.36,0.514 c 0.53,0.594 1.804,1.62 3.045,2.844 l 5.945,-3.133 18.038,0.684 0.203,-1.105 -18.639,-1.033 z"
           id="path37"
           inkscape:connector-curvature="0"
           style="fill:#222" /></g></g><g
       id="g39"><polygon
         points="691.565,3621.357 690.935,3620.948 690.396,3621.482 "
         id="polygon41"
         style="fill:#222" /><polygon
         points="690.935,3620.948 691.565,3621.357 690.396,3621.482 690.935,3620.948 688.235,3619.206 686.314,3620.191 690.555,3622.928 691.186,3623.338 691.723,3622.803 695.934,3618.412 693.587,3618.316 "
         id="polygon43"
         style="fill:#222" /><g
         id="g45"><polygon
           points="686.488,3621.979 685.934,3621.525 685.3,3622.035 "
           id="polygon47"
           style="fill:#222" /><polygon
           points="686.559,3623.42 692.289,3618.254 690.111,3618.184 685.934,3621.525 686.488,3621.979 685.3,3622.035 685.934,3621.525 685.078,3620.828 684.02,3621.371 683.688,3621.107 680.273,3617.859 679.446,3619.011 685.367,3623.475 685.985,3623.939 "
           id="polygon49"
           style="fill:#222" /><polygon
           points="680.706,3617.256 680.336,3617.771 681.089,3617.568 "
           id="polygon51"
           style="fill:#222" /><polygon
           points="680.216,3617.803 680.273,3617.859 680.336,3617.771 "
           id="polygon53"
           style="fill:#222" /><g
           id="g55"><path
             d="m 680.336,3617.771 0.753,-0.203 c 0,0 1.638,-0.379 1.838,-0.432 -0.217,-0.555 -0.764,-0.928 -1.383,-0.861 l -8.585,2.189 -0.025,0.01 -0.024,0 c -0.701,0.082 -1.198,0.693 -1.177,1.386 l 0.617,1.196 -0.177,0.063 0.067,0.175 0.018,0.044 0.005,0.049 c 0.013,0.117 0.065,0.225 0.108,0.332 l 1.584,-0.521 0.43,1.305 c 1.93,-0.225 7.768,-0.906 7.77,-0.906 0.201,-0.021 0.386,-0.109 0.557,-0.223 l -1.261,-2.396 -1.177,-1.118 0.062,-0.089 z"
             id="path57"
             inkscape:connector-curvature="0"
             style="fill:#222" /></g></g></g></g><g
     id="g59"
     transform="matrix(0.83599291,0,0,0.83599291,0.27779666,-3.9175018)"><g
       id="g61"><g
         id="g63"><path
           clip-rule="evenodd"
           d="M 43.803,11.529 C 43.23,10.063 42.419,8.916 41.691,7.539 32.341,-6.774 8.162,2.496 15.139,21.601 c 0.652,1.229 1.229,2.69 2.035,3.837 9.04,17.819 35.912,7.32 26.629,-13.909 l 0,0 z M 42.955,11.78 C 42.306,10.551 41.738,9.478 40.85,8.178 32.142,-5.294 9.423,3.399 16.138,21.269 c 0.499,1.312 1.15,2.537 1.718,3.612 8.362,15.425 33.141,5.049 25.099,-13.101 l 0,0 z"
           id="path65"
           inkscape:connector-curvature="0"
           style="fill:#222;fill-rule:evenodd" /><path
           clip-rule="evenodd"
           d="M 44.027,11.442 C 43.641,10.453 43.16,9.628 42.652,8.754 42.404,8.328 42.147,7.888 41.904,7.428 36.895,-0.243 27.959,-1.079 21.714,2.05 c -5.449,2.728 -10.5,9.509 -6.801,19.635 l 0.005,0.016 0.008,0.015 c 0.213,0.401 0.415,0.821 0.628,1.265 0.428,0.893 0.871,1.813 1.421,2.598 l -0.018,-0.03 c 4.697,9.256 13.958,10.888 20.681,7.715 6.575,-3.104 11.097,-11.057 6.389,-21.822 z m -0.445,0.185 c 4.582,10.476 0.213,18.195 -6.149,21.198 -6.512,3.074 -15.488,1.486 -20.044,-7.496 L 17.382,25.314 17.37,25.3 c -0.528,-0.752 -0.961,-1.656 -1.381,-2.529 -0.207,-0.429 -0.42,-0.873 -0.638,-1.283 l 0.014,0.031 C 11.777,11.69 16.659,5.12 21.93,2.479 c 6.054,-3.033 14.716,-2.223 19.56,5.192 0.236,0.45 0.495,0.895 0.746,1.325 0.497,0.858 0.969,1.667 1.346,2.631 z"
           id="path67"
           inkscape:connector-curvature="0"
           style="fill:#222;fill-rule:evenodd" /><path
           clip-rule="evenodd"
           d="M 43.168,11.667 C 42.513,10.425 41.946,9.352 41.05,8.041 36.38,0.818 27.995,0.026 22.129,2.982 c -5.089,2.563 -9.771,8.913 -6.216,18.371 0.491,1.293 1.125,2.495 1.685,3.557 l 0.045,0.084 c 4.356,8.035 12.983,9.115 19.255,6.03 6.068,-2.983 10.364,-10.121 6.27,-19.357 z m -0.434,0.21 C 46.69,20.806 42.546,27.71 36.684,30.592 30.62,33.575 22.277,32.531 18.067,24.766 18.069,24.769 18.025,24.685 18.025,24.685 17.472,23.636 16.844,22.448 16.364,21.183 12.923,12.026 17.435,5.888 22.345,3.414 28.02,0.555 36.129,1.318 40.646,8.31 c 0.886,1.294 1.446,2.354 2.088,3.567 z"
           id="path69"
           inkscape:connector-curvature="0"
           style="fill:#222;fill-rule:evenodd" /></g><g
         id="g71"><path
           clip-rule="evenodd"
           d="m 41.421,42.278 0.923,-0.489 -0.854,-3.088 -1.839,0.975 1.77,2.602 z M 41.34,38.784 C 39.786,35.477 40.388,31.423 43.565,27.77 L 41.906,26.491 C 38.9,30.836 34.347,32.263 29.38,32.537 l 0.197,1.859 c 4.59,0.128 8.285,1.9 10.075,5.279 l 1.688,-0.891 0,0 z"
           id="path73"
           inkscape:connector-curvature="0"
           style="fill:#222;fill-rule:evenodd" /><path
           clip-rule="evenodd"
           d="m 41.534,42.491 0.923,-0.488 0.172,-0.091 -0.052,-0.187 -0.854,-3.089 -0.08,-0.288 -0.266,0.14 -1.84,0.975 -0.237,0.126 0.151,0.223 1.77,2.603 0.121,0.179 0.192,-0.103 z m -1.769,-2.602 1.839,-0.973 -0.346,-0.151 0.854,3.089 0.119,-0.277 -0.923,0.488 0.313,0.079 -1.77,-2.604 -0.086,0.349 z"
           id="path75"
           inkscape:connector-curvature="0"
           style="fill:#222;fill-rule:evenodd" /><path
           clip-rule="evenodd"
           d="m 41.559,38.68 c -1.598,-3.397 -0.8,-7.315 2.188,-10.75 l 0.169,-0.193 -0.203,-0.157 -1.659,-1.28 -0.202,-0.154 -0.145,0.208 c -2.582,3.733 -6.503,5.621 -12.341,5.942 l -0.254,0.015 0.027,0.252 0.197,1.86 0.021,0.209 0.211,0.006 c 4.674,0.132 8.18,1.961 9.869,5.151 l 0.113,0.213 0.212,-0.113 1.688,-0.891 0.204,-0.108 -0.095,-0.21 z m -0.331,-0.11 -1.688,0.893 0.325,0.099 c -1.774,-3.35 -5.426,-5.271 -10.281,-5.407 l 0.233,0.217 -0.196,-1.858 -0.228,0.266 c 5.999,-0.33 10.038,-2.284 12.712,-6.15 l -0.346,0.055 1.659,1.28 -0.035,-0.35 c -3.12,3.585 -3.943,7.693 -2.261,11.272 l 0.106,-0.317 z"
           id="path77"
           inkscape:connector-curvature="0"
           style="fill:#222;fill-rule:evenodd" /></g><g
         id="g79"><polygon
           clip-rule="evenodd"
           points="46.224,49.115 42.344,41.789 41.421,42.278 45.199,49.413 46.374,49.398 "
           id="polygon81"
           style="fill:#222;fill-rule:evenodd" /><path
           clip-rule="evenodd"
           d="m 41.208,42.391 3.777,7.136 0.069,0.13 0.146,-0.002 1.176,-0.015 0.396,-0.004 -0.186,-0.351 -0.151,-0.283 -3.88,-7.325 -0.112,-0.214 -0.214,0.113 -0.923,0.488 -0.213,0.112 0.115,0.215 z m 0.923,-0.489 3.88,7.326 0.15,0.282 0.211,-0.354 -1.176,0.016 0.216,0.128 -3.778,-7.135 -0.1,0.326 0.923,-0.488 -0.326,-0.101 z"
           id="path83"
           inkscape:connector-curvature="0"
           style="fill:#222;fill-rule:evenodd" /></g></g><g
       id="g85"><rect
         x="21.753"
         y="12.62"
         transform="matrix(0.5404,0.8414,-0.8414,0.5404,27.5511,-24.718)"
         width="29.299999"
         height="0.48300001"
         id="rect87"
         style="fill:#222" /></g><g
       id="g89"><rect
         x="15.608"
         y="15.216"
         transform="matrix(-0.549,-0.8358,0.8358,-0.549,35.3672,49.9986)"
         width="31.131001"
         height="0.48199999"
         id="rect91"
         style="fill:#222" /></g><g
       id="g93"><rect
         x="11.539"
         y="18.438999"
         transform="matrix(-0.5543,-0.8323,0.8323,-0.5543,26.265,51.4256)"
         width="30.722"
         height="0.48300001"
         id="rect95"
         style="fill:#222" /></g><g
       id="g97"><rect
         x="9.632"
         y="21.681999"
         transform="matrix(-0.5652,-0.8249,0.8249,-0.5652,17.359,52.9956)"
         width="26.027"
         height="0.48199999"
         id="rect99"
         style="fill:#222" /></g><g
       id="g101"><rect
         x="13.02"
         y="9.3990002"
         transform="matrix(0.8595,-0.5112,0.5112,0.8595,-1.3628,14.3231)"
         width="24.701"
         height="0.48300001"
         id="rect103"
         style="fill:#222" /></g><g
       id="g105"><rect
         x="14.201"
         y="14.358"
         transform="matrix(0.8508,-0.5254,0.5254,0.8508,-3.4203,17.1506)"
         width="28.59"
         height="0.48300001"
         id="rect107"
         style="fill:#222" /></g><g
       id="g109"><rect
         x="17.308001"
         y="19.349001"
         transform="matrix(0.846,-0.5332,0.5332,0.846,-5.5748,19.8806)"
         width="28.636"
         height="0.48300001"
         id="rect111"
         style="fill:#222" /></g><g
       id="g113"><rect
         x="22.433001"
         y="24.341"
         transform="matrix(0.8451,-0.5346,0.5346,0.8451,-7.7629,22.3714)"
         width="24.583"
         height="0.48199999"
         id="rect115"
         style="fill:#222" /></g><g
       id="g117"><path
         clip-rule="evenodd"
         d="M 8.131,48.748 C 6.821,49.784 4.919,49.564 3.879,48.252 2.842,46.941 3.065,45.039 4.378,44.001"
         id="path119"
         inkscape:connector-curvature="0"
         style="fill:#222;fill-rule:evenodd" /><rect
         x="4.5019999"
         y="44.186001"
         transform="matrix(0.6204,0.7843,-0.7843,0.6204,38.4448,11.3445)"
         clip-rule="evenodd"
         width="6.0029998"
         height="2.402"
         id="rect121"
         style="fill:#222;fill-rule:evenodd" /><path
         clip-rule="evenodd"
         d="M 7.429,41.191"
         id="path123"
         inkscape:connector-curvature="0"
         style="fill:#222;fill-rule:evenodd" /><polygon
         clip-rule="evenodd"
         points="7.36,42.353 7.022,41.95 14.395,28.827 15.427,30.529 "
         id="polygon125"
         style="fill:#222;fill-rule:evenodd" /><polygon
         clip-rule="evenodd"
         points="7.794,42.949 7.516,42.623 16.128,30.291 17.016,32.108 "
         id="polygon127"
         style="fill:#222;fill-rule:evenodd" /><polygon
         clip-rule="evenodd"
         points="8.271,43.551 8.024,43.237 17.75,31.828 18.517,33.606 "
         id="polygon129"
         style="fill:#222;fill-rule:evenodd" /><polygon
         clip-rule="evenodd"
         points="8.716,44.11 8.446,43.771 19.295,33.457 19.798,35.274 "
         id="polygon131"
         style="fill:#222;fill-rule:evenodd" /><polygon
         clip-rule="evenodd"
         points="9.212,44.74 8.943,44.401 20.766,35.102 21.315,36.922 "
         id="polygon133"
         style="fill:#222;fill-rule:evenodd" /><polygon
         clip-rule="evenodd"
         points="9.713,45.37 9.437,44.976 22.115,37.016 22.663,38.792 "
         id="polygon135"
         style="fill:#222;fill-rule:evenodd" /><polygon
         clip-rule="evenodd"
         points="10.168,45.949 9.94,45.659 23.315,39.127 23.642,40.78 "
         id="polygon137"
         style="fill:#222;fill-rule:evenodd" /><polygon
         clip-rule="evenodd"
         points="10.632,46.53 10.361,46.192 24.269,41.177 24.303,42.9 "
         id="polygon139"
         style="fill:#222;fill-rule:evenodd" /></g></g></svg>
