<?xml version="1.0" encoding="UTF-8" standalone="no"?>
<svg
   xmlns:dc="http://purl.org/dc/elements/1.1/"
   xmlns:cc="http://creativecommons.org/ns#"
   xmlns:rdf="http://www.w3.org/1999/02/22-rdf-syntax-ns#"
   xmlns:svg="http://www.w3.org/2000/svg"
   xmlns="http://www.w3.org/2000/svg"
   xmlns:sodipodi="http://sodipodi.sourceforge.net/DTD/sodipodi-0.dtd"
   xmlns:inkscape="http://www.inkscape.org/namespaces/inkscape"
   version="1.1"
   id="Layer_1"
   x="0px"
   y="0px"
   viewBox="42.0945 -59.528 589.323 562.5396"
   enable-background="new 0 0 841.89 595.28"
   xml:space="preserve"
   height="70"
   width="70"
   inkscape:version="0.48.4 r9939"
   sodipodi:docname="bridge.svg"><metadata
     id="metadata17"><rdf:RDF><cc:Work
         rdf:about=""><dc:format>image/svg+xml</dc:format><dc:type
           rdf:resource="http://purl.org/dc/dcmitype/StillImage" /></cc:Work></rdf:RDF></metadata><defs
     id="defs15" /><sodipodi:namedview
     pagecolor="#ffffff"
     bordercolor="#666666"
     borderopacity="1"
     objecttolerance="10"
     gridtolerance="10"
     guidetolerance="10"
     inkscape:pageopacity="0"
     inkscape:pageshadow="2"
     inkscape:window-width="1333"
     inkscape:window-height="744"
     id="namedview13"
     showgrid="false"
     inkscape:zoom="2.36"
     inkscape:cx="42.584746"
     inkscape:cy="50"
     inkscape:window-x="33"
     inkscape:window-y="24"
     inkscape:window-maximized="1"
     inkscape:current-layer="Layer_1"
     inkscape:snap-page="true" /><g
     id="g3"
     transform="translate(-94.838502,-72.260705)"><path
       d="m 443.685,289.319 c 5.854,27.145 18.044,53.443 32.793,76.818 -26.087,0 -52.173,0 -78.259,0 18.348,-21.873 27.442,-49.19 32.886,-76.818 -13.513,15.365 -30.042,23.619 -50.295,15.292 -18.996,-7.811 -26.252,-27.542 -24.651,-46.994 1.885,-22.885 17.217,-38.654 32.734,-53.952 16.708,-16.463 34.487,-33.309 48.171,-52.418 14.452,19.915 31.887,37.384 49.157,54.812 15.61,15.755 31.166,33.805 32.125,57.18 0.794,19.353 -9.835,37.522 -28.911,42.959 -8.427,2.401 -17.534,2.613 -25.802,-0.529 -3.525,-1.343 -19.38,-15.457 -19.962,-15.272 5.9,27.304 0.219,-1.144 0.014,-1.078 z"
       id="path5"
       inkscape:connector-curvature="0" /></g><path
     d="m 503.7385,160.2953 c 17.918,0 33.924,-10.689 40.777,-27.244 4.511,-10.887 4.511,-22.885 0,-33.779005 -4.511,-10.887 -12.99,-19.366 -23.884,-23.877 l -29.354,-12.159 v -36.383 c 0,-18.2549996 -14.849,-33.1039996 -33.104,-33.1039996 h -28.147 c 0.789,-2.1510004 1.433,-4.3700004 1.889,-6.6610004 2.302,-11.562 -0.04,-23.328 -6.594,-33.124 -8.202,-12.276 -21.926,-19.611 -36.709,-19.611 -8.585,0 -16.913,2.48 -24.109,7.196 l -92.539,52.2000004 h -45.528 c -18.255,0 -33.104,14.849 -33.104,33.1039996 v 59.203 c -16.997,-15.455 -40.429,-20.55 -55.884,-20.55 h -11.033 V 343.4323 l -0.132,0.003 c 1.197,45.678 19.651,88.624 51.968,120.934 33.554,33.561 78.167,52.034 125.617,52.034 47.45,0 92.063,-18.474 125.624,-52.027 17.285,-17.288 30.248,-37.284 38.905,-58.632 13.259,-4.319 22.873,-16.794 22.879,-31.48 v -35.359 c 16.449,-1.312 30.823,-11.648 37.205,-27.092 7.462,-18.027 2.051,-38.223 -11.97,-50.32 10.28,-4.463 18.673,-12.779 23.148,-23.601 9.306,-22.475 -1.402,-48.337 -23.877,-57.643 l -24.506,-10.145 v -11.619 c 4.046,1.199 8.219,1.81 12.462,1.81 z m -12.462,-73.377005 20.914,8.868 c 5.443,2.255 9.683,6.489005 11.939,11.939005 2.255,5.437 2.255,11.429 0,16.873 -3.433,8.274 -11.436,13.625 -20.392,13.625 -2.897,0 -5.728,-0.569 -8.427,-1.687 l -4.035,-1.738 V 86.918295 z m -115.603,-126.346 0.708,-0.437 c 3.651,-2.427 7.878,-3.717 12.23,-3.717 7.401,0 14.267,3.664 18.368,9.802 3.267,4.895 4.438,10.775 3.287,16.549 -0.835,4.197 -2.825,7.972 -5.727,10.9800004 h -87.678 l 58.812,-33.1770004 z m 93.532,413.693005 c 0,6.085 -4.954,11.039 -11.039,11.039 h -120.234 v 22.065 h 105.14 c -7.307,14.854 -17.125,28.774 -29.467,41.114 -29.308,29.314 -68.279,45.46 -109.73,45.46 -41.451,0 -80.422,-16.145 -109.737,-45.46 -28.229,-28.223 -44.348,-65.732 -45.4,-105.629 l -0.258,0.007 V 88.815295 c 5.205,0.972 11.641,2.679 17.958,5.708 17.6,8.427005 26.153,22.740005 26.153,43.753005 v 83.69 l 0.146,8.784 8.519,1.997 c 2.011,0.47 49.283,12.594 49.283,106.006 h 22.072 c 0,-88.657 -39.758,-116.463 -57.947,-124.552 v -22.012 h 0.741 V 26.853295 c 0,-6.085 4.947,-11.039 11.033,-11.039 h 231.729 c 6.085,0 11.039,4.954 11.039,11.039 V 374.2653 z m 38.898,-70.898 c -2.964,7.153 -9.357,12.115 -16.827,13.321 v -44.172 l 4.895,2.026 c 11.231,4.657 16.588,17.588 11.932,28.825 z m -0.761,-102.732 c 11.231,4.656 16.589,17.587 11.939,28.812 -3.433,8.281 -11.436,13.625 -20.392,13.625 -2.604,0 -5.154,-0.486 -7.613,-1.395 v -47.693 l 16.066,6.651 z"
     id="path7"
     inkscape:connector-curvature="0" /></svg>
