<?xml version="1.0" encoding="UTF-8" standalone="no"?>
<!-- Created with Inkscape (http://www.inkscape.org/) -->

<svg
   xmlns:dc="http://purl.org/dc/elements/1.1/"
   xmlns:cc="http://creativecommons.org/ns#"
   xmlns:rdf="http://www.w3.org/1999/02/22-rdf-syntax-ns#"
   xmlns:svg="http://www.w3.org/2000/svg"
   xmlns="http://www.w3.org/2000/svg"
   xmlns:sodipodi="http://sodipodi.sourceforge.net/DTD/sodipodi-0.dtd"
   xmlns:inkscape="http://www.inkscape.org/namespaces/inkscape"
   version="1.1"
   width="100%"
   height="100%"
   viewBox="0 0 380.74999 380.74999"
   id="svg2"
   inkscape:version="0.48.4 r9939"
   sodipodi:docname="CarromBoard.svg">
  <sodipodi:namedview
     pagecolor="#ffffff"
     bordercolor="#666666"
     borderopacity="1"
     objecttolerance="10"
     gridtolerance="10"
     guidetolerance="10"
     inkscape:pageopacity="0"
     inkscape:pageshadow="2"
     inkscape:window-width="1333"
     inkscape:window-height="744"
     id="namedview3886"
     showgrid="false"
     inkscape:zoom="1.3525936"
     inkscape:cx="190.375"
     inkscape:cy="190.375"
     inkscape:window-x="33"
     inkscape:window-y="24"
     inkscape:window-maximized="1"
     inkscape:current-layer="svg2"
     inkscape:snap-page="true" />
  <defs
     id="defs4243" />
  <path
     style="fill:#000000;stroke:#000000;stroke-width:2.0000093"
     id="path3765"
     d="m 240.64047,191.29243 c 0,28.10941 -22.78718,50.89658 -50.89658,50.89658 -28.10941,0 -50.89658,-22.78717 -50.89658,-50.89658 0,-28.1094 22.78717,-50.89658 50.89658,-50.89658 28.1094,0 50.89658,22.78718 50.89658,50.89658 z"
     inkscape:connector-curvature="0" />
  <path
     style="fill:#ffffff;stroke:#000000;stroke-width:1.99989891"
     id="path3767"
     d="m 227.72912,191.28304 c 0,20.98264 -17.00979,37.99243 -37.99243,37.99243 -20.98264,0 -37.99243,-17.00979 -37.99243,-37.99243 0,-20.98264 17.00979,-37.99243 37.99243,-37.99243 20.98264,0 37.99243,17.00979 37.99243,37.99243 z"
     inkscape:connector-curvature="0" />
  <path
     style="fill:#000000;stroke:#000000;stroke-width:2.00000405"
     id="path3769"
     d="m 206.22721,191.29073 c 0,9.10584 -7.38174,16.48759 -16.48759,16.48759 -9.10584,0 -16.48758,-7.38175 -16.48758,-16.48759 0,-9.10584 7.38174,-16.48759 16.48758,-16.48759 9.10585,0 16.48759,7.38175 16.48759,16.48759 z"
     inkscape:connector-curvature="0" />
  <path
     style="fill:none;stroke:#000000;stroke-width:3"
     id="path3799"
     d="m 51.51125,327.52875 87.366,-90.852 m -85.666,-184.64799 87.366,90.85199 m 188.644,-91.98199 -87.366,90.85199 m 86.466,188.118 -87.37,-90.85 M 95.9419,73.49555 c 0,4.35503 -3.53045,7.88549 -7.88549,7.88549 -4.35503,0 -7.88549,-3.53046 -7.88549,-7.88549 0,-4.35503 3.53046,-7.88549 7.88549,-7.88549 4.35504,0 7.88549,3.53045 7.88549,7.88549 z m 217.48,18.11 c 0,4.35503 -3.53045,7.88549 -7.88549,7.88549 -4.35503,0 -7.88549,-3.53046 -7.88549,-7.88549 0,-4.35504 3.53046,-7.88549 7.88549,-7.88549 4.35504,0 7.88549,3.53045 7.88549,7.88549 z m -14,-16 c 0,4.35503 -3.53045,7.88549 -7.88549,7.88549 -4.35503,0 -7.88549,-3.53046 -7.88549,-7.88549 0,-4.35503 3.53046,-7.88549 7.88549,-7.88549 4.35504,0 7.88549,3.53045 7.88549,7.88549 z m -217.48,13.89 c 0,4.35503 -3.53045,7.88549 -7.88549,7.88549 -4.35503,0 -7.88549,-3.53046 -7.88549,-7.88549 0,-4.35504 3.53046,-7.88549 7.88549,-7.88549 4.35504,0 7.88549,3.53045 7.88549,7.88549 z m -1.88,201.47 c 0,4.35504 -3.53045,7.88549 -7.88549,7.88549 -4.35503,0 -7.88549,-3.53045 -7.88549,-7.88549 0,-4.35504 3.53046,-7.88549 7.88549,-7.88549 4.35504,0 7.88549,3.53045 7.88549,7.88549 z m 15.77,16 c 0,4.35504 -3.53045,7.88549 -7.88549,7.88549 -4.35503,0 -7.88549,-3.53045 -7.88549,-7.88549 0,-4.35504 3.53046,-7.88549 7.88549,-7.88549 4.35504,0 7.88549,3.53045 7.88549,7.88549 z m 203.89,-1.1 c 0,4.35503 -3.53045,7.88549 -7.88549,7.88549 -4.35503,0 -7.88549,-3.53046 -7.88549,-7.88549 0,-4.35504 3.53046,-7.88549 7.88549,-7.88549 4.35504,0 7.88549,3.53045 7.88549,7.88549 z m 14,-14 c 0,4.35503 -3.53045,7.88549 -7.88549,7.88549 -4.35503,0 -7.88549,-3.53046 -7.88549,-7.88549 0,-4.35504 3.53046,-7.88549 7.88549,-7.88549 4.35504,0 7.88549,3.53045 7.88549,7.88549 z M 80.06125,81.60876 l 219.36,0 0,219.36001 -219.36,0 z m -12.9,-12.90002 245.16001,0 0,245.16 -245.16001,0 z"
     inkscape:connector-curvature="0" />
  <path
     style="fill:#000000;stroke:#ffffff;stroke-width:3.59999967;stroke-miterlimit:4;stroke-opacity:1;stroke-dasharray:none"
     id="path3857"
     d="m 183.0962,191.29245 c 0,3.66571 2.98197,6.64769 6.64769,6.64769 3.66524,0 6.6477,-2.98198 6.6477,-6.64769 -0.97962,-9.47265 -13.082,-6.99821 -13.29539,0 z m 6.64769,-20.7611 c -11.44823,0 -20.76109,9.31287 -20.76109,20.7611 0,11.44822 9.31286,20.76108 20.76109,20.76108 11.44673,0 20.76109,-9.31286 20.76109,-20.76108 0,-11.44674 -9.31436,-20.7611 -20.76109,-20.7611 z m 0,-7.4657 c -15.56393,0 -28.22679,12.66195 -28.22679,28.22679 0,15.56485 12.66286,28.22679 28.22679,28.22679 15.56393,0 28.22679,-12.66194 28.22679,-28.22679 0,-15.56484 -12.66195,-28.22679 -28.22679,-28.22679 z"
     inkscape:connector-curvature="0" />
  <metadata
     id="metadata4241">
    <rdf:RDF>
      <cc:Work>
        <dc:format>image/svg+xml</dc:format>
        <dc:type
           rdf:resource="http://purl.org/dc/dcmitype/StillImage" />
        <cc:license
           rdf:resource="http://creativecommons.org/licenses/publicdomain/" />
        <dc:publisher>
          <cc:Agent
             rdf:about="http://openclipart.org/">
            <dc:title>Openclipart</dc:title>
          </cc:Agent>
        </dc:publisher>
        <dc:title></dc:title>
      </cc:Work>
      <cc:License
         rdf:about="http://creativecommons.org/licenses/publicdomain/">
        <cc:permits
           rdf:resource="http://creativecommons.org/ns#Reproduction" />
        <cc:permits
           rdf:resource="http://creativecommons.org/ns#Distribution" />
        <cc:permits
           rdf:resource="http://creativecommons.org/ns#DerivativeWorks" />
      </cc:License>
    </rdf:RDF>
  </metadata>
</svg>
