<?xml version="1.0" encoding="UTF-8" standalone="no"?>
<svg
   xmlns:dc="http://purl.org/dc/elements/1.1/"
   xmlns:cc="http://creativecommons.org/ns#"
   xmlns:rdf="http://www.w3.org/1999/02/22-rdf-syntax-ns#"
   xmlns:svg="http://www.w3.org/2000/svg"
   xmlns="http://www.w3.org/2000/svg"
   xmlns:sodipodi="http://sodipodi.sourceforge.net/DTD/sodipodi-0.dtd"
   xmlns:inkscape="http://www.inkscape.org/namespaces/inkscape"
   version="1.1"
   id="Layer_1"
   x="0px"
   y="0px"
   width="100px"
   height="100px"
   viewBox="0 0 100 100"
   enable-background="new 0 0 100 100"
   xml:space="preserve"
   inkscape:version="0.48.4 r9939"
   sodipodi:docname="cricket.svg"><metadata
     id="metadata209"><rdf:RDF><cc:Work
         rdf:about=""><dc:format>image/svg+xml</dc:format><dc:type
           rdf:resource="http://purl.org/dc/dcmitype/StillImage" /></cc:Work></rdf:RDF></metadata><defs
     id="defs207" /><sodipodi:namedview
     pagecolor="#ffffff"
     bordercolor="#666666"
     borderopacity="1"
     objecttolerance="10"
     gridtolerance="10"
     guidetolerance="10"
     inkscape:pageopacity="0"
     inkscape:pageshadow="2"
     inkscape:window-width="1333"
     inkscape:window-height="744"
     id="namedview205"
     showgrid="false"
     inkscape:zoom="5.15"
     inkscape:cx="50"
     inkscape:cy="50"
     inkscape:window-x="33"
     inkscape:window-y="24"
     inkscape:window-maximized="1"
     inkscape:current-layer="Layer_1"
     inkscape:snap-page="true" /><g
     id="g3025"
     transform="matrix(0.98877488,0,0,0.98877488,-2.4831905,-4.7766899)"><circle
       id="circle195"
       r="7.1680002"
       cy="18.806"
       cx="54.507"
       sodipodi:cx="54.507"
       sodipodi:cy="18.806"
       sodipodi:rx="7.1680002"
       sodipodi:ry="7.1680002"
       transform="translate(0.93693072,2.6677864)"
       d="m 61.675,18.806 c 0,3.958777 -3.209223,7.168 -7.168,7.168 -3.958777,0 -7.168,-3.209223 -7.168,-7.168 0,-3.958777 3.209223,-7.168 7.168,-7.168 3.958777,0 7.168,3.209223 7.168,7.168 z" /><path
       id="path197"
       d="m 57.41693,59.251787 -7.168,13.724 -17.689999,11.896 3.659,8.538 21.709999,-15.117 6.658,-14.158 13.721,7.931 1.526,21.345 h 7.625 v -25.925 l -18.605,-12.807001 -4.266,-22.268 c 0,0 -3.665,-4.573 -10.679,-1.828 l -9.758999,4.876 -8.192,15.594 6.264,2.03 7.870999,-12.961 4.117,-1.245 1.482,5.793 -2.756,5.336 -12.720999,1.654 -0.479,7.169001 16.069999,-4.763001 1.767,-3.359 -0.153,6.407"
       inkscape:connector-curvature="0" /><polyline
       id="polyline199"
       points="35.427,43.974 7.833,30.499 3.931,37.834 30.855,51.308 "
       transform="translate(0.93693072,2.6677864)" /><polyline
       id="polyline201"
       points="30.498,49.302 39.071,53.922 40.36,48.694 33.355,45.205 30.498,50.219 "
       transform="translate(0.93693072,2.6677864)" /><circle
       id="circle203"
       r="4.131"
       cy="54.768002"
       cx="88.339996"
       sodipodi:cx="88.339996"
       sodipodi:cy="54.768002"
       sodipodi:rx="4.131"
       sodipodi:ry="4.131"
       transform="translate(0.93693072,2.6677864)"
       d="m 92.470996,54.768002 c 0,2.281488 -1.849511,4.131 -4.131,4.131 -2.281488,0 -4.131,-1.849512 -4.131,-4.131 0,-2.281489 1.849512,-4.131 4.131,-4.131 2.281489,0 4.131,1.849511 4.131,4.131 z" /></g></svg>
