<?xml version="1.0" encoding="UTF-8" standalone="no"?>
<!-- Generator: Adobe Illustrator 16.0.0, SVG Export Plug-In . SVG Version: 6.00 Build 0)  -->

<svg
   xmlns:dc="http://purl.org/dc/elements/1.1/"
   xmlns:cc="http://creativecommons.org/ns#"
   xmlns:rdf="http://www.w3.org/1999/02/22-rdf-syntax-ns#"
   xmlns:svg="http://www.w3.org/2000/svg"
   xmlns="http://www.w3.org/2000/svg"
   xmlns:sodipodi="http://sodipodi.sourceforge.net/DTD/sodipodi-0.dtd"
   xmlns:inkscape="http://www.inkscape.org/namespaces/inkscape"
   version="1.1"
   id="Capa_1"
   x="0px"
   y="0px"
   width="24.049px"
   height="24.05px"
   viewBox="0 0 24.049 24.05"
   style="enable-background:new 0 0 24.049 24.05;"
   xml:space="preserve"
   inkscape:version="0.48.4 r9939"
   sodipodi:docname="football.svg"><metadata
     id="metadata41"><rdf:RDF><cc:Work
         rdf:about=""><dc:format>image/svg+xml</dc:format><dc:type
           rdf:resource="http://purl.org/dc/dcmitype/StillImage" /></cc:Work></rdf:RDF></metadata><defs
     id="defs39" /><sodipodi:namedview
     pagecolor="#ffffff"
     bordercolor="#666666"
     borderopacity="1"
     objecttolerance="10"
     gridtolerance="10"
     guidetolerance="10"
     inkscape:pageopacity="0"
     inkscape:pageshadow="2"
     inkscape:window-width="1333"
     inkscape:window-height="744"
     id="namedview37"
     showgrid="false"
     inkscape:snap-page="true"
     inkscape:zoom="9.8128901"
     inkscape:cx="-4.9429784"
     inkscape:cy="12.025"
     inkscape:window-x="33"
     inkscape:window-y="24"
     inkscape:window-maximized="1"
     inkscape:current-layer="Capa_1" /><g
     id="g3"
     transform="matrix(0.81785572,0,0,0.81785572,2.6487655,1.4266949)"><path
       d="m 6.674,21.5 c 0,1.38 -1.12,2.5 -2.5,2.5 -1.38,0 -2.5,-1.12 -2.5,-2.5 0,-1.38 1.119,-2.5 2.5,-2.5 1.381,0 2.5,1.119 2.5,2.5 z M 15.174,5 c 1.381,0 2.5,-1.119 2.5,-2.5 0,-1.381 -1.119,-2.5 -2.5,-2.5 -1.381,0 -2.5,1.119 -2.5,2.5 0,1.381 1.12,2.5 2.5,2.5 z m 7.04,6.356 -2.199,-3.4 C 19.923,7.815 19.796,7.699 19.651,7.619 L 17.306,6.357 C 16.231,5.669 12.846,4.908 11.473,5.3 11.455,5.304 11.44,5.314 11.42,5.319 11.279,5.34 11.141,5.386 11.014,5.471 l -3.7,2.5 C 7.273,8 7.233,8.031 7.195,8.065 l -2.6,2.4 C 4.189,10.84 4.164,11.472 4.538,11.878 4.736,12.092 5.005,12.2 5.275,12.2 5.517,12.2 5.76,12.112 5.953,11.935 L 8.497,9.586 10.664,8.121 8.1,14.199 7.06,16.23 c -0.314,0.614 -0.071,1.367 0.543,1.684 0.182,0.094 0.376,0.137 0.568,0.137 0.454,0 0.893,-0.246 1.114,-0.68 l 0.161,-0.314 0.027,0.043 2.1,-3 -0.866,3.563 L 9,22.374 c -0.235,0.647 0.1,1.365 0.749,1.601 0.14,0.053 0.284,0.075 0.426,0.075 0.511,0 0.991,-0.315 1.174,-0.823 l 3.301,-9.101 c 0.025,-0.073 0.021,-0.146 0.031,-0.222 L 16.575,8.4 c 0,0 0.023,-0.052 0.062,-0.13 l 1.838,0.989 2.062,3.185 c 0.19,0.296 0.514,0.457 0.842,0.457 0.188,0 0.375,-0.053 0.543,-0.161 0.46,-0.301 0.592,-0.92 0.292,-1.384 z"
       id="path5"
       inkscape:connector-curvature="0" /></g><g
     id="g7" /><g
     id="g9" /><g
     id="g11" /><g
     id="g13" /><g
     id="g15" /><g
     id="g17" /><g
     id="g19" /><g
     id="g21" /><g
     id="g23" /><g
     id="g25" /><g
     id="g27" /><g
     id="g29" /><g
     id="g31" /><g
     id="g33" /><g
     id="g35" /></svg>
